<svg width="1280" height="400" viewBox="0 0 1280 400" fill="none" xmlns="http://www.w3.org/2000/svg">
<g clip-path="url(#clip0_2_10)">
<rect width="1280" height="400" rx="8" fill="#121212"/>
<path d="M607.392 266.216C607.392 267.5 608.292 268.316 609.456 268.316C610.464 268.316 611.568 267.608 611.568 266.216C611.568 264.824 610.608 264.08 609.456 264.08C608.292 264.08 607.392 264.968 607.392 266.216ZM606.96 270.404L607.644 270.008C608.064 270.692 608.7 271.004 609.372 271.004C610.68 271.004 611.568 270.272 611.568 267.98C611.196 268.7 610.272 269.12 609.456 269.12C607.86 269.12 606.588 267.992 606.588 266.216C606.588 264.44 607.86 263.276 609.456 263.276C610.272 263.276 611.148 263.648 611.568 264.356V263.396H612.372V268.112C612.372 270.848 611.136 271.796 609.372 271.796C608.448 271.796 607.524 271.364 606.96 270.404ZM615.1 263.396V269H614.308V263.396H615.1ZM614.104 261.308C614.104 260.972 614.38 260.732 614.716 260.732C615.052 260.732 615.328 260.972 615.328 261.308C615.328 261.644 615.052 261.884 614.716 261.884C614.38 261.884 614.104 261.644 614.104 261.308ZM618.214 269H617.41V264.116H616.402V263.396H617.41V261.296H618.214V263.396H619.402V264.116H618.214V269ZM621.534 265.94V269H620.73V260.36H621.534V264.32C621.882 263.588 622.746 263.276 623.394 263.276C624.774 263.276 625.566 264.2 625.554 265.736V269H624.75V265.736C624.75 264.692 624.258 264.068 623.394 264.068C622.506 264.068 621.534 264.572 621.534 265.94ZM631.369 266.456V263.396H632.173V269H631.369V268.076C631.021 268.808 630.157 269.12 629.509 269.12C628.129 269.12 627.337 268.196 627.349 266.66V263.396H628.153V266.66C628.153 267.704 628.645 268.328 629.509 268.328C630.397 268.328 631.369 267.824 631.369 266.456ZM634.113 269V260.36H634.917V264.32C635.337 263.612 636.213 263.276 637.029 263.276C638.625 263.276 639.897 264.404 639.897 266.18C639.897 267.956 638.625 269.12 637.029 269.12C636.213 269.12 635.337 268.748 634.917 268.04V269H634.113ZM639.093 266.18C639.093 264.896 638.193 264.08 637.029 264.08C636.021 264.08 634.917 264.788 634.917 266.18C634.917 267.572 635.877 268.316 637.029 268.316C638.193 268.316 639.093 267.428 639.093 266.18ZM641.352 268.496C641.352 268.124 641.64 267.872 642.012 267.872C642.384 267.872 642.672 268.124 642.672 268.496C642.672 268.868 642.384 269.12 642.012 269.12C641.64 269.12 641.352 268.868 641.352 268.496ZM648.503 267.788L649.079 268.352C648.551 268.844 647.831 269.12 647.051 269.12C645.455 269.12 644.123 267.956 644.123 266.18C644.123 264.404 645.455 263.276 647.051 263.276C647.831 263.276 648.539 263.552 649.067 264.032L648.503 264.596C648.119 264.26 647.615 264.068 647.051 264.068C645.887 264.068 644.915 264.884 644.915 266.18C644.915 267.476 645.887 268.328 647.051 268.328C647.615 268.328 648.107 268.148 648.503 267.788ZM652.922 269.12C651.326 269.12 649.994 267.956 649.994 266.18C649.994 264.404 651.326 263.276 652.922 263.276C654.518 263.276 655.85 264.404 655.85 266.18C655.85 267.956 654.518 269.12 652.922 269.12ZM652.922 268.328C654.086 268.328 655.058 267.476 655.058 266.18C655.058 264.884 654.086 264.068 652.922 264.068C651.758 264.068 650.786 264.884 650.786 266.18C650.786 267.476 651.758 268.328 652.922 268.328ZM662.234 265.94V269H661.43V265.736C661.43 264.692 660.938 264.068 660.074 264.068C659.186 264.068 658.214 264.572 658.214 265.94V269H657.41V263.396H658.214V264.32C658.562 263.588 659.558 263.276 660.074 263.276C661.034 263.276 661.694 263.72 662.018 264.5C662.534 263.444 663.53 263.276 664.094 263.276C665.474 263.276 666.266 264.2 666.254 265.736V269H665.45V265.736C665.45 264.692 664.958 264.068 664.094 264.068C663.206 264.068 662.234 264.572 662.234 265.94ZM672.452 260.732L668.408 269H667.532L671.576 260.732H672.452ZM678.7 260.36V269H677.896V268.04C677.476 268.748 676.6 269.12 675.784 269.12C674.188 269.12 672.916 267.956 672.916 266.18C672.916 264.404 674.188 263.276 675.784 263.276C676.6 263.276 677.476 263.612 677.896 264.32V260.36H678.7ZM673.72 266.18C673.72 267.428 674.62 268.316 675.784 268.316C676.936 268.316 677.896 267.572 677.896 266.18C677.896 264.788 676.792 264.08 675.784 264.08C674.62 264.08 673.72 264.896 673.72 266.18ZM683.096 269.12C681.5 269.12 680.264 267.956 680.264 266.18C680.264 264.404 681.5 263.276 683.096 263.276C684.692 263.276 685.844 264.404 685.844 266.18C685.844 266.312 685.844 266.444 685.832 266.552H681.08C681.212 267.644 682.064 268.328 683.096 268.328C683.864 268.328 684.5 267.968 684.848 267.356C685.088 267.416 685.4 267.476 685.652 267.536C685.184 268.544 684.236 269.12 683.096 269.12ZM681.08 265.808H685.028C684.872 264.74 684.14 264.068 683.096 264.068C682.04 264.068 681.236 264.74 681.08 265.808ZM686.538 263.396H687.378L689.286 268.064L691.182 263.396H692.034L689.706 269H689.718H688.854L686.538 263.396ZM692.973 265.82H697.065V266.576H692.973V265.82ZM698.702 261.308C698.702 260.972 698.978 260.732 699.314 260.732C699.65 260.732 699.926 260.972 699.926 261.308C699.926 261.644 699.65 261.884 699.314 261.884C698.978 261.884 698.702 261.644 698.702 261.308ZM697.154 271.712V270.956H697.754C698.822 270.956 698.906 270.068 698.906 269.324V263.396H699.71V269.324C699.71 270.668 699.242 271.712 697.754 271.712H697.154ZM701.204 267.392H701.912C702.008 267.824 702.284 268.364 703.232 268.364C703.952 268.364 704.42 268.004 704.42 267.476C704.42 267.104 704.204 266.756 703.616 266.612L702.836 266.432C702.152 266.276 701.264 265.916 701.42 264.608C701.552 263.804 702.332 263.276 703.244 263.276C704.12 263.276 704.852 263.708 705.008 264.728H704.228C704.132 264.296 703.724 264.044 703.244 264.044C702.704 264.044 702.26 264.332 702.2 264.728C702.068 265.364 702.644 265.568 703.028 265.664L703.796 265.844C704.852 266.096 705.212 266.708 705.212 267.476C705.212 268.448 704.324 269.12 703.16 269.12C702.224 269.12 701.24 268.496 701.204 267.392ZM710.73 267.788L711.306 268.352C710.778 268.844 710.058 269.12 709.278 269.12C707.682 269.12 706.35 267.956 706.35 266.18C706.35 264.404 707.682 263.276 709.278 263.276C710.058 263.276 710.766 263.552 711.294 264.032L710.73 264.596C710.346 264.26 709.842 264.068 709.278 264.068C708.114 264.068 707.142 264.884 707.142 266.18C707.142 267.476 708.114 268.328 709.278 268.328C709.842 268.328 710.334 268.148 710.73 267.788ZM712.625 265.028C712.625 262.772 713.201 260.924 715.469 260.924C717.725 260.924 718.301 262.772 718.301 265.028C718.301 267.284 717.725 269.12 715.469 269.12C713.201 269.12 712.625 267.284 712.625 265.028ZM713.417 265.028C713.417 266.852 713.825 268.328 715.469 268.328C717.101 268.328 717.509 266.852 717.509 265.028C717.509 263.192 717.101 261.716 715.469 261.716C713.825 261.716 713.417 263.192 713.417 265.028ZM723.129 260.36V261.116H722.529C721.449 261.116 721.377 262.004 721.377 262.748V263.396H722.757V264.116H721.377V269H720.573V264.116H719.481V263.396H720.573V262.748C720.573 261.404 721.041 260.36 722.529 260.36H723.129ZM724.942 269V262.052L723.586 262.52V261.8L725.734 261.02V269H724.942ZM730.369 269.12C728.773 269.12 727.537 267.956 727.537 266.18C727.537 264.404 728.773 263.276 730.369 263.276C731.965 263.276 733.117 264.404 733.117 266.18C733.117 266.312 733.117 266.444 733.105 266.552H728.353C728.485 267.644 729.337 268.328 730.369 268.328C731.137 268.328 731.773 267.968 732.121 267.356C732.361 267.416 732.673 267.476 732.925 267.536C732.457 268.544 731.509 269.12 730.369 269.12ZM728.353 265.808H732.301C732.145 264.74 731.413 264.068 730.369 264.068C729.313 264.068 728.509 264.74 728.353 265.808ZM735.393 260.36V269H734.601V260.36H735.393ZM742.731 260.36V269H741.927V268.04C741.507 268.748 740.631 269.12 739.815 269.12C738.219 269.12 736.947 267.956 736.947 266.18C736.947 264.404 738.219 263.276 739.815 263.276C740.631 263.276 741.507 263.612 741.927 264.32V260.36H742.731ZM737.751 266.18C737.751 267.428 738.651 268.316 739.815 268.316C740.967 268.316 741.927 267.572 741.927 266.18C741.927 264.788 740.823 264.08 739.815 264.08C738.651 264.08 737.751 264.896 737.751 266.18Z" fill="white"/>
<path fill-rule="evenodd" clip-rule="evenodd" d="M589.008 255C583.474 255 579 259.583 579 265.253C579 269.786 581.867 273.623 585.843 274.981C586.341 275.083 586.523 274.76 586.523 274.488C586.523 274.251 586.506 273.436 586.506 272.587C583.722 273.198 583.142 271.365 583.142 271.365C582.695 270.176 582.032 269.871 582.032 269.871C581.121 269.243 582.099 269.243 582.099 269.243C583.109 269.311 583.64 270.295 583.64 270.295C584.534 271.857 585.976 271.416 586.556 271.144C586.639 270.482 586.904 270.024 587.186 269.769C584.965 269.531 582.629 268.649 582.629 264.71C582.629 263.59 583.026 262.673 583.656 261.96C583.557 261.706 583.209 260.653 583.756 259.244C583.756 259.244 584.601 258.972 586.506 260.296C587.322 260.072 588.163 259.958 589.008 259.957C589.853 259.957 590.715 260.076 591.51 260.296C593.416 258.972 594.261 259.244 594.261 259.244C594.808 260.653 594.46 261.706 594.36 261.96C595.007 262.673 595.388 263.59 595.388 264.71C595.388 268.649 593.051 269.514 590.814 269.769C591.179 270.092 591.494 270.703 591.494 271.67C591.494 273.045 591.477 274.149 591.477 274.488C591.477 274.76 591.66 275.083 592.157 274.981C596.133 273.622 599 269.786 599 265.253C599.016 259.583 594.526 255 589.008 255Z" fill="white"/>
<path d="M402.764 260.36V269H401.972V260.36H402.764ZM405.494 263.396V269H404.702V263.396H405.494ZM404.498 261.308C404.498 260.972 404.774 260.732 405.11 260.732C405.446 260.732 405.722 260.972 405.722 261.308C405.722 261.644 405.446 261.884 405.11 261.884C404.774 261.884 404.498 261.644 404.498 261.308ZM408.237 265.94V269H407.433V263.396H408.237V264.32C408.585 263.588 409.449 263.276 410.097 263.276C411.477 263.276 412.269 264.2 412.257 265.736V269H411.453V265.736C411.453 264.692 410.961 264.068 410.097 264.068C409.209 264.068 408.237 264.572 408.237 265.94ZM414.916 265.94V269H414.124V260.36H414.916V265.616L417.136 263.396H418.264L415.864 265.796L418.9 269H417.808L414.916 265.94ZM422.057 269.12C420.461 269.12 419.225 267.956 419.225 266.18C419.225 264.404 420.461 263.276 422.057 263.276C423.653 263.276 424.805 264.404 424.805 266.18C424.805 266.312 424.805 266.444 424.793 266.552H420.041C420.173 267.644 421.025 268.328 422.057 268.328C422.825 268.328 423.461 267.968 423.809 267.356C424.049 267.416 424.361 267.476 424.613 267.536C424.145 268.544 423.197 269.12 422.057 269.12ZM420.041 265.808H423.989C423.833 264.74 423.101 264.068 422.057 264.068C421.001 264.068 420.197 264.74 420.041 265.808ZM431.688 260.36V269H430.884V268.04C430.464 268.748 429.588 269.12 428.772 269.12C427.176 269.12 425.904 267.956 425.904 266.18C425.904 264.404 427.176 263.276 428.772 263.276C429.588 263.276 430.464 263.612 430.884 264.32V260.36H431.688ZM426.708 266.18C426.708 267.428 427.608 268.316 428.772 268.316C429.924 268.316 430.884 267.572 430.884 266.18C430.884 264.788 429.78 264.08 428.772 264.08C427.608 264.08 426.708 264.896 426.708 266.18ZM434.428 263.396V269H433.636V263.396H434.428ZM433.432 261.308C433.432 260.972 433.708 260.732 434.044 260.732C434.38 260.732 434.656 260.972 434.656 261.308C434.656 261.644 434.38 261.884 434.044 261.884C433.708 261.884 433.432 261.644 433.432 261.308ZM437.171 265.94V269H436.367V263.396H437.171V264.32C437.519 263.588 438.383 263.276 439.031 263.276C440.411 263.276 441.203 264.2 441.191 265.736V269H440.387V265.736C440.387 264.692 439.895 264.068 439.031 264.068C438.143 264.068 437.171 264.572 437.171 265.94ZM442.95 268.496C442.95 268.124 443.238 267.872 443.61 267.872C443.982 267.872 444.27 268.124 444.27 268.496C444.27 268.868 443.982 269.12 443.61 269.12C443.238 269.12 442.95 268.868 442.95 268.496ZM450.101 267.788L450.677 268.352C450.149 268.844 449.429 269.12 448.649 269.12C447.053 269.12 445.721 267.956 445.721 266.18C445.721 264.404 447.053 263.276 448.649 263.276C449.429 263.276 450.137 263.552 450.665 264.032L450.101 264.596C449.717 264.26 449.213 264.068 448.649 264.068C447.485 264.068 446.513 264.884 446.513 266.18C446.513 267.476 447.485 268.328 448.649 268.328C449.213 268.328 449.705 268.148 450.101 267.788ZM454.52 269.12C452.924 269.12 451.592 267.956 451.592 266.18C451.592 264.404 452.924 263.276 454.52 263.276C456.116 263.276 457.448 264.404 457.448 266.18C457.448 267.956 456.116 269.12 454.52 269.12ZM454.52 268.328C455.684 268.328 456.656 267.476 456.656 266.18C456.656 264.884 455.684 264.068 454.52 264.068C453.356 264.068 452.384 264.884 452.384 266.18C452.384 267.476 453.356 268.328 454.52 268.328ZM463.831 265.94V269H463.027V265.736C463.027 264.692 462.535 264.068 461.671 264.068C460.783 264.068 459.811 264.572 459.811 265.94V269H459.007V263.396H459.811V264.32C460.159 263.588 461.155 263.276 461.671 263.276C462.631 263.276 463.291 263.72 463.615 264.5C464.131 263.444 465.127 263.276 465.691 263.276C467.071 263.276 467.863 264.2 467.851 265.736V269H467.047V265.736C467.047 264.692 466.555 264.068 465.691 264.068C464.803 264.068 463.831 264.572 463.831 265.94ZM474.05 260.732L470.006 269H469.13L473.174 260.732H474.05ZM476.182 263.396V269H475.39V263.396H476.182ZM475.186 261.308C475.186 260.972 475.462 260.732 475.798 260.732C476.134 260.732 476.41 260.972 476.41 261.308C476.41 261.644 476.134 261.884 475.798 261.884C475.462 261.884 475.186 261.644 475.186 261.308ZM478.924 265.94V269H478.12V263.396H478.924V264.32C479.272 263.588 480.136 263.276 480.784 263.276C482.164 263.276 482.956 264.2 482.944 265.736V269H482.14V265.736C482.14 264.692 481.648 264.068 480.784 264.068C479.896 264.068 478.924 264.572 478.924 265.94ZM489.144 260.732L485.1 269H484.224L488.268 260.732H489.144ZM495.392 260.36V269H494.588V268.04C494.168 268.748 493.292 269.12 492.476 269.12C490.88 269.12 489.608 267.956 489.608 266.18C489.608 264.404 490.88 263.276 492.476 263.276C493.292 263.276 494.168 263.612 494.588 264.32V260.36H495.392ZM490.412 266.18C490.412 267.428 491.312 268.316 492.476 268.316C493.628 268.316 494.588 267.572 494.588 266.18C494.588 264.788 493.484 264.08 492.476 264.08C491.312 264.08 490.412 264.896 490.412 266.18ZM499.787 269.12C498.191 269.12 496.955 267.956 496.955 266.18C496.955 264.404 498.191 263.276 499.787 263.276C501.383 263.276 502.535 264.404 502.535 266.18C502.535 266.312 502.535 266.444 502.523 266.552H497.771C497.903 267.644 498.755 268.328 499.787 268.328C500.555 268.328 501.191 267.968 501.539 267.356C501.779 267.416 502.091 267.476 502.343 267.536C501.875 268.544 500.927 269.12 499.787 269.12ZM497.771 265.808H501.719C501.563 264.74 500.831 264.068 499.787 264.068C498.731 264.068 497.927 264.74 497.771 265.808ZM503.229 263.396H504.069L505.977 268.064L507.873 263.396H508.725L506.397 269H506.409H505.545L503.229 263.396ZM509.665 265.82H513.757V266.576H509.665V265.82ZM515.393 261.308C515.393 260.972 515.669 260.732 516.005 260.732C516.341 260.732 516.617 260.972 516.617 261.308C516.617 261.644 516.341 261.884 516.005 261.884C515.669 261.884 515.393 261.644 515.393 261.308ZM513.845 271.712V270.956H514.445C515.513 270.956 515.597 270.068 515.597 269.324V263.396H516.401V269.324C516.401 270.668 515.933 271.712 514.445 271.712H513.845ZM517.895 267.392H518.603C518.699 267.824 518.975 268.364 519.923 268.364C520.643 268.364 521.111 268.004 521.111 267.476C521.111 267.104 520.895 266.756 520.307 266.612L519.527 266.432C518.843 266.276 517.955 265.916 518.111 264.608C518.243 263.804 519.023 263.276 519.935 263.276C520.811 263.276 521.543 263.708 521.699 264.728H520.919C520.823 264.296 520.415 264.044 519.935 264.044C519.395 264.044 518.951 264.332 518.891 264.728C518.759 265.364 519.335 265.568 519.719 265.664L520.487 265.844C521.543 266.096 521.903 266.708 521.903 267.476C521.903 268.448 521.015 269.12 519.851 269.12C518.915 269.12 517.931 268.496 517.895 267.392ZM527.421 267.788L527.997 268.352C527.469 268.844 526.749 269.12 525.969 269.12C524.373 269.12 523.041 267.956 523.041 266.18C523.041 264.404 524.373 263.276 525.969 263.276C526.749 263.276 527.457 263.552 527.985 264.032L527.421 264.596C527.037 264.26 526.533 264.068 525.969 264.068C524.805 264.068 523.833 264.884 523.833 266.18C523.833 267.476 524.805 268.328 525.969 268.328C526.533 268.328 527.025 268.148 527.421 267.788ZM529.316 265.028C529.316 262.772 529.892 260.924 532.16 260.924C534.416 260.924 534.992 262.772 534.992 265.028C534.992 267.284 534.416 269.12 532.16 269.12C529.892 269.12 529.316 267.284 529.316 265.028ZM530.108 265.028C530.108 266.852 530.516 268.328 532.16 268.328C533.792 268.328 534.2 266.852 534.2 265.028C534.2 263.192 533.792 261.716 532.16 261.716C530.516 261.716 530.108 263.192 530.108 265.028ZM539.82 260.36V261.116H539.22C538.14 261.116 538.068 262.004 538.068 262.748V263.396H539.448V264.116H538.068V269H537.264V264.116H536.172V263.396H537.264V262.748C537.264 261.404 537.732 260.36 539.22 260.36H539.82ZM541.633 269V262.052L540.277 262.52V261.8L542.425 261.02V269H541.633ZM547.061 269.12C545.465 269.12 544.229 267.956 544.229 266.18C544.229 264.404 545.465 263.276 547.061 263.276C548.657 263.276 549.809 264.404 549.809 266.18C549.809 266.312 549.809 266.444 549.797 266.552H545.045C545.177 267.644 546.029 268.328 547.061 268.328C547.829 268.328 548.465 267.968 548.813 267.356C549.053 267.416 549.365 267.476 549.617 267.536C549.149 268.544 548.201 269.12 547.061 269.12ZM545.045 265.808H548.993C548.837 264.74 548.105 264.068 547.061 264.068C546.005 264.068 545.201 264.74 545.045 265.808ZM552.084 260.36V269H551.292V260.36H552.084ZM559.423 260.36V269H558.619V268.04C558.199 268.748 557.323 269.12 556.507 269.12C554.911 269.12 553.639 267.956 553.639 266.18C553.639 264.404 554.911 263.276 556.507 263.276C557.323 263.276 558.199 263.612 558.619 264.32V260.36H559.423ZM554.443 266.18C554.443 267.428 555.343 268.316 556.507 268.316C557.659 268.316 558.619 267.572 558.619 266.18C558.619 264.788 557.515 264.08 556.507 264.08C555.343 264.08 554.443 264.896 554.443 266.18Z" fill="white"/>
<g clip-path="url(#clip1_2_10)">
<path d="M392.52 255H375.477C374.66 255 374 255.645 374 256.441V273.555C374 274.352 374.66 275 375.477 275H392.52C393.336 275 394 274.352 394 273.559V256.441C394 255.645 393.336 255 392.52 255ZM379.934 272.043H376.965V262.496H379.934V272.043ZM378.449 261.195C377.496 261.195 376.727 260.426 376.727 259.477C376.727 258.527 377.496 257.758 378.449 257.758C379.398 257.758 380.168 258.527 380.168 259.477C380.168 260.422 379.398 261.195 378.449 261.195ZM391.043 272.043H388.078V267.402C388.078 266.297 388.059 264.871 386.535 264.871C384.992 264.871 384.758 266.078 384.758 267.324V272.043H381.797V262.496H384.641V263.801H384.68C385.074 263.051 386.043 262.258 387.484 262.258C390.488 262.258 391.043 264.234 391.043 266.805V272.043V272.043Z" fill="white"/>
</g>
<path d="M224.372 260.36V269H223.568V268.04C223.148 268.748 222.272 269.12 221.456 269.12C219.86 269.12 218.588 267.956 218.588 266.18C218.588 264.404 219.86 263.276 221.456 263.276C222.272 263.276 223.148 263.612 223.568 264.32V260.36H224.372ZM219.392 266.18C219.392 267.428 220.292 268.316 221.456 268.316C222.608 268.316 223.568 267.572 223.568 266.18C223.568 264.788 222.464 264.08 221.456 264.08C220.292 264.08 219.392 264.896 219.392 266.18ZM228.768 269.12C227.172 269.12 225.936 267.956 225.936 266.18C225.936 264.404 227.172 263.276 228.768 263.276C230.364 263.276 231.516 264.404 231.516 266.18C231.516 266.312 231.516 266.444 231.504 266.552H226.752C226.884 267.644 227.736 268.328 228.768 268.328C229.536 268.328 230.172 267.968 230.52 267.356C230.76 267.416 231.072 267.476 231.324 267.536C230.856 268.544 229.908 269.12 228.768 269.12ZM226.752 265.808H230.7C230.544 264.74 229.812 264.068 228.768 264.068C227.712 264.068 226.908 264.74 226.752 265.808ZM232.21 263.396H233.05L234.958 268.064L236.854 263.396H237.706L235.378 269H235.39H234.526L232.21 263.396ZM238.352 268.496C238.352 268.124 238.64 267.872 239.012 267.872C239.384 267.872 239.672 268.124 239.672 268.496C239.672 268.868 239.384 269.12 239.012 269.12C238.64 269.12 238.352 268.868 238.352 268.496ZM241.303 261.308C241.303 260.972 241.579 260.732 241.915 260.732C242.251 260.732 242.527 260.972 242.527 261.308C242.527 261.644 242.251 261.884 241.915 261.884C241.579 261.884 241.303 261.644 241.303 261.308ZM239.755 271.712V270.956H240.355C241.423 270.956 241.507 270.068 241.507 269.324V263.396H242.311V269.324C242.311 270.668 241.843 271.712 240.355 271.712H239.755ZM243.805 267.392H244.513C244.609 267.824 244.885 268.364 245.833 268.364C246.553 268.364 247.021 268.004 247.021 267.476C247.021 267.104 246.805 266.756 246.217 266.612L245.437 266.432C244.753 266.276 243.865 265.916 244.021 264.608C244.153 263.804 244.933 263.276 245.845 263.276C246.721 263.276 247.453 263.708 247.609 264.728H246.829C246.733 264.296 246.325 264.044 245.845 264.044C245.305 264.044 244.861 264.332 244.801 264.728C244.669 265.364 245.245 265.568 245.629 265.664L246.397 265.844C247.453 266.096 247.813 266.708 247.813 267.476C247.813 268.448 246.925 269.12 245.761 269.12C244.825 269.12 243.841 268.496 243.805 267.392ZM253.331 267.788L253.907 268.352C253.379 268.844 252.659 269.12 251.879 269.12C250.283 269.12 248.951 267.956 248.951 266.18C248.951 264.404 250.283 263.276 251.879 263.276C252.659 263.276 253.367 263.552 253.895 264.032L253.331 264.596C252.947 264.26 252.443 264.068 251.879 264.068C250.715 264.068 249.743 264.884 249.743 266.18C249.743 267.476 250.715 268.328 251.879 268.328C252.443 268.328 252.935 268.148 253.331 267.788ZM255.226 265.028C255.226 262.772 255.802 260.924 258.07 260.924C260.326 260.924 260.902 262.772 260.902 265.028C260.902 267.284 260.326 269.12 258.07 269.12C255.802 269.12 255.226 267.284 255.226 265.028ZM256.018 265.028C256.018 266.852 256.426 268.328 258.07 268.328C259.702 268.328 260.11 266.852 260.11 265.028C260.11 263.192 259.702 261.716 258.07 261.716C256.426 261.716 256.018 263.192 256.018 265.028ZM265.73 260.36V261.116H265.13C264.05 261.116 263.978 262.004 263.978 262.748V263.396H265.358V264.116H263.978V269H263.174V264.116H262.082V263.396H263.174V262.748C263.174 261.404 263.642 260.36 265.13 260.36H265.73ZM267.544 269V262.052L266.188 262.52V261.8L268.336 261.02V269H267.544ZM272.971 269.12C271.375 269.12 270.139 267.956 270.139 266.18C270.139 264.404 271.375 263.276 272.971 263.276C274.567 263.276 275.719 264.404 275.719 266.18C275.719 266.312 275.719 266.444 275.707 266.552H270.955C271.087 267.644 271.939 268.328 272.971 268.328C273.739 268.328 274.375 267.968 274.723 267.356C274.963 267.416 275.275 267.476 275.527 267.536C275.059 268.544 274.111 269.12 272.971 269.12ZM270.955 265.808H274.903C274.747 264.74 274.015 264.068 272.971 264.068C271.915 264.068 271.111 264.74 270.955 265.808ZM277.994 260.36V269H277.202V260.36H277.994ZM285.333 260.36V269H284.529V268.04C284.109 268.748 283.233 269.12 282.417 269.12C280.821 269.12 279.549 267.956 279.549 266.18C279.549 264.404 280.821 263.276 282.417 263.276C283.233 263.276 284.109 263.612 284.529 264.32V260.36H285.333ZM280.353 266.18C280.353 267.428 281.253 268.316 282.417 268.316C283.569 268.316 284.529 267.572 284.529 266.18C284.529 264.788 283.425 264.08 282.417 264.08C281.253 264.08 280.353 264.896 280.353 266.18ZM293.713 265.916V265.904C293.713 264.98 292.969 264.248 292.057 264.248C291.145 264.248 290.401 264.98 290.401 265.904C290.401 266.816 291.145 267.56 292.057 267.56C292.501 267.56 292.885 267.38 293.209 267.056V267.908C292.885 268.136 292.477 268.292 292.057 268.292C290.737 268.292 289.669 267.224 289.669 265.904C289.669 264.584 290.737 263.516 292.057 263.516C292.693 263.516 293.281 263.756 293.713 264.176C294.145 264.596 294.409 265.16 294.445 265.796V267.584C294.445 268.316 294.949 268.472 295.405 268.472C296.653 268.472 296.917 266.768 296.917 265.76C296.917 263.216 294.721 261.368 292.177 261.368C289.633 261.368 287.665 263.432 287.665 265.976C287.665 268.52 289.633 270.536 292.177 270.536H292.393V271.268H292.177C289.225 271.268 286.933 268.916 286.933 265.976C286.933 263.036 289.225 260.636 292.177 260.636C295.117 260.636 297.661 262.808 297.661 265.76C297.661 267.164 297.097 269.18 295.405 269.18C294.541 269.18 293.713 268.796 293.713 267.5V265.916ZM299.548 266.216C299.548 267.5 300.448 268.316 301.612 268.316C302.62 268.316 303.724 267.608 303.724 266.216C303.724 264.824 302.764 264.08 301.612 264.08C300.448 264.08 299.548 264.968 299.548 266.216ZM299.116 270.404L299.8 270.008C300.22 270.692 300.856 271.004 301.528 271.004C302.836 271.004 303.724 270.272 303.724 267.98C303.352 268.7 302.428 269.12 301.612 269.12C300.016 269.12 298.744 267.992 298.744 266.216C298.744 264.44 300.016 263.276 301.612 263.276C302.428 263.276 303.304 263.648 303.724 264.356V263.396H304.528V268.112C304.528 270.848 303.292 271.796 301.528 271.796C300.604 271.796 299.68 271.364 299.116 270.404ZM311.288 265.94V269H310.484V265.736C310.484 264.692 309.992 264.068 309.128 264.068C308.24 264.068 307.268 264.572 307.268 265.94V269H306.464V263.396H307.268V264.32C307.616 263.588 308.612 263.276 309.128 263.276C310.088 263.276 310.748 263.72 311.072 264.5C311.588 263.444 312.584 263.276 313.148 263.276C314.528 263.276 315.32 264.2 315.308 265.736V269H314.504V265.736C314.504 264.692 314.012 264.068 313.148 264.068C312.26 264.068 311.288 264.572 311.288 265.94ZM322.575 263.396V269H321.771V268.04C321.351 268.748 320.475 269.12 319.659 269.12C318.063 269.12 316.791 267.956 316.791 266.18C316.791 264.404 318.063 263.276 319.659 263.276C320.475 263.276 321.351 263.612 321.771 264.32V263.396H322.575ZM317.595 266.18C317.595 267.428 318.495 268.316 319.659 268.316C320.811 268.316 321.771 267.572 321.771 266.18C321.771 264.788 320.667 264.08 319.659 264.08C318.495 264.08 317.595 264.896 317.595 266.18ZM325.315 263.396V269H324.523V263.396H325.315ZM324.319 261.308C324.319 260.972 324.595 260.732 324.931 260.732C325.267 260.732 325.543 260.972 325.543 261.308C325.543 261.644 325.267 261.884 324.931 261.884C324.595 261.884 324.319 261.644 324.319 261.308ZM328.045 260.36V269H327.253V260.36H328.045ZM329.876 268.496C329.876 268.124 330.164 267.872 330.536 267.872C330.908 267.872 331.196 268.124 331.196 268.496C331.196 268.868 330.908 269.12 330.536 269.12C330.164 269.12 329.876 268.868 329.876 268.496ZM337.027 267.788L337.603 268.352C337.075 268.844 336.355 269.12 335.575 269.12C333.979 269.12 332.647 267.956 332.647 266.18C332.647 264.404 333.979 263.276 335.575 263.276C336.355 263.276 337.063 263.552 337.591 264.032L337.027 264.596C336.643 264.26 336.139 264.068 335.575 264.068C334.411 264.068 333.439 264.884 333.439 266.18C333.439 267.476 334.411 268.328 335.575 268.328C336.139 268.328 336.631 268.148 337.027 267.788ZM341.446 269.12C339.85 269.12 338.518 267.956 338.518 266.18C338.518 264.404 339.85 263.276 341.446 263.276C343.042 263.276 344.374 264.404 344.374 266.18C344.374 267.956 343.042 269.12 341.446 269.12ZM341.446 268.328C342.61 268.328 343.582 267.476 343.582 266.18C343.582 264.884 342.61 264.068 341.446 264.068C340.282 264.068 339.31 264.884 339.31 266.18C339.31 267.476 340.282 268.328 341.446 268.328ZM350.757 265.94V269H349.953V265.736C349.953 264.692 349.461 264.068 348.597 264.068C347.709 264.068 346.737 264.572 346.737 265.94V269H345.933V263.396H346.737V264.32C347.085 263.588 348.081 263.276 348.597 263.276C349.557 263.276 350.217 263.72 350.541 264.5C351.057 263.444 352.053 263.276 352.617 263.276C353.997 263.276 354.789 264.2 354.777 265.736V269H353.973V265.736C353.973 264.692 353.481 264.068 352.617 264.068C351.729 264.068 350.757 264.572 350.757 265.94Z" fill="white"/>
<g clip-path="url(#clip2_2_10)">
<path d="M201 263.182V267.055H206.382C206.145 268.3 205.436 269.355 204.373 270.064L207.618 272.582C209.509 270.836 210.6 268.273 210.6 265.227C210.6 264.518 210.536 263.836 210.418 263.182L201 263.182Z" fill="white"/>
<path d="M195.396 266.903L194.664 267.464L192.073 269.482C193.718 272.745 197.091 275 201 275C203.7 275 205.963 274.109 207.618 272.582L204.372 270.064C203.481 270.664 202.345 271.027 201 271.027C198.4 271.027 196.191 269.273 195.4 266.909L195.396 266.903Z" fill="white"/>
<path d="M192.073 260.518C191.391 261.864 191 263.382 191 265C191 266.618 191.391 268.136 192.073 269.482C192.073 269.491 195.4 266.9 195.4 266.9C195.2 266.3 195.082 265.664 195.082 265C195.082 264.336 195.2 263.7 195.4 263.1L192.073 260.518Z" fill="white"/>
<path d="M201 258.982C202.473 258.982 203.782 259.491 204.827 260.473L207.691 257.609C205.954 255.991 203.7 255 201 255C197.091 255 193.718 257.245 192.073 260.518L195.4 263.1C196.191 260.736 198.4 258.982 201 258.982Z" fill="white"/>
</g>
<path d="M189.97 219.5L190.15 217.55C190.42 217.64 191.5 217.76 191.83 217.76C194.86 217.76 196 215.69 196 213.17V191.33H197.98V213.17C197.98 216.74 196.3 219.74 191.83 219.74C191.26 219.74 190.48 219.62 189.97 219.5ZM213.269 205.64V197.99H215.279V212H213.269V209.69C212.399 211.52 210.239 212.3 208.619 212.3C205.169 212.3 203.189 209.99 203.219 206.15V197.99H205.229V206.15C205.229 208.76 206.459 210.32 208.619 210.32C210.839 210.32 213.269 209.06 213.269 205.64ZM222.137 204.35V212H220.127V197.99H222.137V200.3C223.007 198.47 225.167 197.69 226.787 197.69C230.237 197.69 232.217 200 232.187 203.84V212H230.177V203.84C230.177 201.23 228.947 199.67 226.787 199.67C224.567 199.67 222.137 200.93 222.137 204.35ZM238.836 197.99V212H236.856V197.99H238.836ZM236.346 192.77C236.346 191.93 237.036 191.33 237.876 191.33C238.716 191.33 239.406 191.93 239.406 192.77C239.406 193.61 238.716 194.21 237.876 194.21C237.036 194.21 236.346 193.61 236.346 192.77ZM250.042 212.3C246.052 212.3 242.722 209.39 242.722 204.95C242.722 200.51 246.052 197.69 250.042 197.69C254.032 197.69 257.362 200.51 257.362 204.95C257.362 209.39 254.032 212.3 250.042 212.3ZM250.042 210.32C252.952 210.32 255.382 208.19 255.382 204.95C255.382 201.71 252.952 199.67 250.042 199.67C247.132 199.67 244.702 201.71 244.702 204.95C244.702 208.19 247.132 210.32 250.042 210.32ZM269.57 198.23L269.33 200.18C268.64 199.85 267.8 199.7 267.29 199.7C264.44 199.7 263.27 203.06 263.27 206.78V212H261.26V197.99H263.27V201.17C263.96 198.77 265.25 197.69 267.29 197.69C268.25 197.69 269.3 197.99 269.57 198.23ZM279.085 206.06H281.065C281.065 208.13 282.895 210.32 285.775 210.32C288.865 210.32 290.515 208.55 290.845 206.93C291.235 204.38 289.225 203.12 286.915 202.55L284.125 201.92C279.805 200.96 279.265 198.47 279.265 196.73C279.265 193.37 282.475 191.09 285.745 191.09C289.435 191.09 292.225 193.4 292.225 197H290.245C290.245 194.6 288.295 193.07 285.745 193.07C283.435 193.07 281.245 194.57 281.245 196.73C281.245 197.84 281.635 199.34 284.545 200L287.365 200.63C290.695 201.35 293.365 203.36 292.795 207.29C292.315 209.69 290.005 212.3 285.775 212.3C281.695 212.3 279.085 209.06 279.085 206.06ZM303.216 212.3C299.226 212.3 295.896 209.39 295.896 204.95C295.896 200.51 299.226 197.69 303.216 197.69C307.206 197.69 310.536 200.51 310.536 204.95C310.536 209.39 307.206 212.3 303.216 212.3ZM303.216 210.32C306.126 210.32 308.556 208.19 308.556 204.95C308.556 201.71 306.126 199.67 303.216 199.67C300.306 199.67 297.876 201.71 297.876 204.95C297.876 208.19 300.306 210.32 303.216 210.32ZM321.994 190.4V192.29H320.494C317.794 192.29 317.614 194.51 317.614 196.37V197.99H321.064V199.79H317.614V212H315.604V199.79H312.874V197.99H315.604V196.37C315.604 193.01 316.774 190.4 320.494 190.4H321.994ZM327.247 212H325.237V199.79H322.717V197.99H325.237V192.74H327.247V197.99H330.217V199.79H327.247V212ZM349.165 212H347.485L343.135 200.75L338.935 212H337.255L331.855 197.99H333.985L338.035 208.82L342.055 197.99H344.215L348.265 208.82L352.285 197.99H354.415L349.165 212ZM370.825 197.99V212H368.815V209.6C367.765 211.37 365.575 212.3 363.535 212.3C359.545 212.3 356.365 209.39 356.365 204.95C356.365 200.51 359.545 197.69 363.535 197.69C365.575 197.69 367.765 198.53 368.815 200.3V197.99H370.825ZM358.375 204.95C358.375 208.07 360.625 210.29 363.535 210.29C366.415 210.29 368.815 208.43 368.815 204.95C368.815 201.47 366.055 199.7 363.535 199.7C360.625 199.7 358.375 201.74 358.375 204.95ZM384.004 198.23L383.764 200.18C383.074 199.85 382.234 199.7 381.724 199.7C378.874 199.7 377.704 203.06 377.704 206.78V212H375.694V197.99H377.704V201.17C378.394 198.77 379.684 197.69 381.724 197.69C382.684 197.69 383.734 197.99 384.004 198.23ZM392.712 212.3C388.722 212.3 385.632 209.39 385.632 204.95C385.632 200.51 388.722 197.69 392.712 197.69C396.702 197.69 399.582 200.51 399.582 204.95C399.582 205.28 399.582 205.61 399.552 205.88H387.672C388.002 208.61 390.132 210.32 392.712 210.32C394.632 210.32 396.222 209.42 397.092 207.89C397.692 208.04 398.472 208.19 399.102 208.34C397.932 210.86 395.562 212.3 392.712 212.3ZM387.672 204.02H397.542C397.152 201.35 395.322 199.67 392.712 199.67C390.072 199.67 388.062 201.35 387.672 204.02ZM411.83 191.33H423.62V193.31H413.81V200.87H422.39V202.85H413.81V210.02H423.95V212H411.83V191.33ZM429.764 204.35V212H427.754V197.99H429.764V200.3C430.634 198.47 432.794 197.69 434.414 197.69C437.864 197.69 439.844 200 439.814 203.84V212H437.804V203.84C437.804 201.23 436.574 199.67 434.414 199.67C432.194 199.67 429.764 200.93 429.764 204.35ZM445.533 205.04C445.533 208.25 447.783 210.29 450.693 210.29C453.213 210.29 455.973 208.52 455.973 205.04C455.973 201.56 453.573 199.7 450.693 199.7C447.783 199.7 445.533 201.92 445.533 205.04ZM444.453 215.51L446.163 214.52C447.213 216.23 448.803 217.01 450.483 217.01C453.753 217.01 455.973 215.18 455.973 209.45C455.043 211.25 452.733 212.3 450.693 212.3C446.703 212.3 443.523 209.48 443.523 205.04C443.523 200.6 446.703 197.69 450.693 197.69C452.733 197.69 454.923 198.62 455.973 200.39V197.99H457.983V209.78C457.983 216.62 454.893 218.99 450.483 218.99C448.173 218.99 445.863 217.91 444.453 215.51ZM464.803 197.99V212H462.823V197.99H464.803ZM462.313 192.77C462.313 191.93 463.003 191.33 463.843 191.33C464.683 191.33 465.373 191.93 465.373 192.77C465.373 193.61 464.683 194.21 463.843 194.21C463.003 194.21 462.313 193.61 462.313 192.77ZM471.659 204.35V212H469.649V197.99H471.659V200.3C472.529 198.47 474.689 197.69 476.309 197.69C479.759 197.69 481.739 200 481.709 203.84V212H479.699V203.84C479.699 201.23 478.469 199.67 476.309 199.67C474.089 199.67 471.659 200.93 471.659 204.35ZM492.497 212.3C488.507 212.3 485.417 209.39 485.417 204.95C485.417 200.51 488.507 197.69 492.497 197.69C496.487 197.69 499.367 200.51 499.367 204.95C499.367 205.28 499.367 205.61 499.337 205.88H487.457C487.787 208.61 489.917 210.32 492.497 210.32C494.417 210.32 496.007 209.42 496.877 207.89C497.477 208.04 498.257 208.19 498.887 208.34C497.717 210.86 495.347 212.3 492.497 212.3ZM487.457 204.02H497.327C496.937 201.35 495.107 199.67 492.497 199.67C489.857 199.67 487.847 201.35 487.457 204.02ZM509.196 212.3C505.206 212.3 502.116 209.39 502.116 204.95C502.116 200.51 505.206 197.69 509.196 197.69C513.186 197.69 516.066 200.51 516.066 204.95C516.066 205.28 516.066 205.61 516.036 205.88H504.156C504.486 208.61 506.616 210.32 509.196 210.32C511.116 210.32 512.706 209.42 513.576 207.89C514.176 208.04 514.956 208.19 515.586 208.34C514.416 210.86 512.046 212.3 509.196 212.3ZM504.156 204.02H514.026C513.636 201.35 511.806 199.67 509.196 199.67C506.556 199.67 504.546 201.35 504.156 204.02ZM528.086 198.23L527.846 200.18C527.156 199.85 526.316 199.7 525.806 199.7C522.956 199.7 521.786 203.06 521.786 206.78V212H519.776V197.99H521.786V201.17C522.476 198.77 523.766 197.69 525.806 197.69C526.766 197.69 527.816 197.99 528.086 198.23Z" fill="white"/>
<path d="M189.8 175.22L190.32 170.072C191.308 170.384 193.596 170.54 194.012 170.54C198.172 170.54 199.68 167.576 199.68 164.092V127.172H205.244V164.092C205.244 170.488 202.228 175.844 194.012 175.844C193.024 175.844 191.204 175.584 189.8 175.22ZM217.886 145.164C217.886 152.392 223.398 158.112 230.47 158.112C237.594 158.112 243.106 152.392 243.106 145.164C243.106 137.936 237.594 132.164 230.47 132.164C223.398 132.164 217.886 137.936 217.886 145.164ZM212.374 145.164C212.374 135.024 220.278 126.756 230.47 126.756C240.714 126.756 248.67 135.024 248.67 145.164C248.67 155.356 240.714 163.52 230.47 163.52C220.278 163.52 212.374 155.356 212.374 145.164ZM277.477 127.172H283.093V163H277.477V147.712H261.305V163H255.793V127.172H261.305V142.668H277.477V127.172ZM318.509 127.172V163H313.361L297.969 137.364V163H292.457V127.172H297.761L312.997 152.6V127.172H318.509ZM360.451 152.704L372.619 127.172H377.559L381.927 163H376.415L373.347 137.416L362.843 158.996H358.163L347.607 137.416L344.539 163H339.027L343.395 127.172H348.283L360.451 152.704ZM389.246 163V127.172H394.758V163H389.246ZM404.125 163V127.172H409.637V157.956H423.989V163H404.125ZM430.075 163V127.172H435.587V157.956H449.939V163H430.075ZM456.024 163V127.172H477.604V132.268H461.536V142.876H475.576V147.92H461.536V157.956H478.124V163H456.024ZM499.308 132.268H491.092V144.8H499.1C503.104 144.8 504.716 141.628 504.716 138.56C504.716 135.544 503.156 132.268 499.308 132.268ZM501.18 149.636L510.592 163H503.884L494.94 149.844H491.092V163H485.528V127.172H499.516C507.212 127.172 510.436 132.892 510.436 138.56C510.436 143.76 507.784 148.96 501.18 149.636ZM544.026 158.216C548.134 158.216 551.722 155.2 551.722 150.572V127.172H557.286V150.572C557.286 158.476 551.15 163.52 544.026 163.52C536.798 163.52 530.714 158.476 530.714 150.572V127.172H536.33V150.572C536.33 155.2 539.918 158.216 544.026 158.216ZM592.322 127.172V163H587.174L571.782 137.364V163H566.27V127.172H571.574L586.81 152.6V127.172H592.322ZM630.056 131.8L626 135.388C623.764 133.308 620.904 132.008 617.576 132.008C610.452 132.008 604.94 137.936 604.94 145.164C604.94 152.392 610.452 158.32 617.576 158.32C623.4 158.32 628.08 154.888 628.34 149.532H618.304V144.8H634.684C634.684 157.592 627.82 163.52 617.576 163.52C607.384 163.52 599.428 155.356 599.428 145.164C599.428 135.024 607.384 126.756 617.576 126.756C622.568 126.756 626.936 128.68 630.056 131.8ZM644.194 145.164C644.194 152.392 649.706 158.112 656.778 158.112C663.902 158.112 669.414 152.392 669.414 145.164C669.414 137.936 663.902 132.164 656.778 132.164C649.706 132.164 644.194 137.936 644.194 145.164ZM638.682 145.164C638.682 135.024 646.586 126.756 656.778 126.756C667.022 126.756 674.978 135.024 674.978 145.164C674.978 155.356 667.022 163.52 656.778 163.52C646.586 163.52 638.682 155.356 638.682 145.164ZM680.022 152.6H685.534C685.69 155.512 688.342 158.476 692.658 158.476C696.87 158.476 699.054 156.24 699.418 153.588C699.626 150.26 697.078 148.544 693.75 147.764L689.226 146.62C681.53 144.54 680.334 140.172 680.334 137C680.334 130.864 685.846 126.756 692.138 126.756C698.794 126.756 703.786 130.812 703.786 137.364H698.274C698.274 134.036 695.778 131.956 692.034 131.956C688.706 131.956 685.846 133.984 685.846 136.896C685.846 138.3 686.366 140.484 690.63 141.576L695.206 142.772C702.486 144.696 705.45 148.7 704.878 153.9C704.306 159.516 699.47 163.52 692.658 163.52C685.222 163.52 680.022 158.424 680.022 152.6Z" fill="white"/>
<path d="M-3.93396 77L-35.9999 105.777L96.8485 228.376L128.914 199.599L-3.93396 77Z" fill="white"/>
<path d="M-3.84827 322L-35.9142 293.223L96.9342 170.624L129 199.401L-3.84827 322Z" fill="white"/>
<path d="M1285.93 321L1318 292.223L1185.15 169.624L1153.09 198.401L1285.93 321Z" fill="white"/>
<path d="M1285.85 76L1317.91 104.777L1185.07 227.376L1153 198.599L1285.85 76Z" fill="white"/>
</g>
<defs>
<clipPath id="clip0_2_10">
<rect width="1280" height="400" rx="8" fill="white"/>
</clipPath>
<clipPath id="clip1_2_10">
<rect width="20" height="20" fill="white" transform="translate(374 255)"/>
</clipPath>
<clipPath id="clip2_2_10">
<rect width="20" height="20" fill="white" transform="translate(191 255)"/>
</clipPath>
</defs>
</svg>
